{
  "ok": false,
  "returncode": 1,
  "stdout": "shot: '2. 近景强化热点核心元素，镜头快速推进，突出“穿搭能让普通人改变气质”带来的氛围和讨论感。' (attempt 2/3)\n  > Polling operation status for video 2...\nDEBUG: videoBytes type: <class 'NoneType'>, length: N/A\nDEBUG: uri: https://generativelanguage.googleapis.com/v1beta/files/q9653rmb4by8:download?alt=media\n  > Successfully downloaded video segment to /var/folders/j8/0f8b_9650cb1wcvt43dysm9c0000gn/T/tmpc4fhf7tr/segment_2.mp4\nGenerating video segment 3/5 for shot: '3. 中景展示更完整的场面关系，画面层次拉开，形成抖音式的节奏推进。' (attempt 1/3)\n  > Polling operation status for video 3...\nDEBUG: videoBytes type: <class 'NoneType'>, length: N/A\nDEBUG: uri: https://generativelanguage.googleapis.com/v1beta/files/kr9p8d9y2tv9:download?alt=media\n  > Successfully downloaded video segment to /var/folders/j8/0f8b_9650cb1wcvt43dysm9c0000gn/T/tmpc4fhf7tr/segment_3.mp4\nGenerating video segment 4/5 for shot: '4. 一个高光转场镜头，视觉风格达到顶点，让“穿搭能让普通人改变气质”的感觉彻底立住。' (attempt 1/3)\n  > Polling operation status for video 4...\nDEBUG: videoBytes type: <class 'NoneType'>, length: N/A\nDEBUG: uri: https://generativelanguage.googleapis.com/v1beta/files/ee9iee3s4scw:download?alt=media\n  > Successfully downloaded video segment to /var/folders/j8/0f8b_9650cb1wcvt43dysm9c0000gn/T/tmpc4fhf7tr/segment_4.mp4\nGenerating video segment 5/5 for shot: '5. 收尾镜头留有余味，画面平稳落下，但情绪和记忆点还在。' (attempt 1/3)\n  > Polling operation status for video 5...\nDEBUG: videoBytes type: <class 'NoneType'>, length: N/A\nDEBUG: uri: https://generativelanguage.googleapis.com/v1beta/files/psbjlvp3sg9u:download?alt=media\n  > Successfully downloaded video segment to /var/folders/j8/0f8b_9650cb1wcvt43dysm9c0000gn/T/tmpc4fhf7tr/segment_5.mp4\n--- Video segment generation complete. ---\n\n--- Step 3: Combining video segments ---\n--- Video segments combined successfully. ---\n\n--- Step 4: Generating voiceover audio ---\nVoiceover saved to /var/folders/j8/0f8b_9650cb1wcvt43dysm9c0000gn/T/tmpc4fhf7tr/voiceover.mp3\n--- Voiceover generation complete. ---\n\n--- Step 5: Mixing voiceover and background music ---\n--- Audio mixing complete. ---\n\n--- Step 6: Assembling final video with subtitles ---\nError during final assembly:\nffmpeg version 8.1 Copyright (c) 2000-2026 the FFmpeg developers\n  built with Apple clang version 17.0.0 (clang-1700.6.4.2)\n  configuration: --prefix=/opt/homebrew/Cellar/ffmpeg-full/8.1 --enable-shared --enable-pthreads --enable-version3 --cc=clang --host-cflags= --host-ldflags= --enable-ffplay --enable-gnutls --enable-gpl --enable-libaom --enable-libaribb24 --enable-libbluray --enable-libdav1d --enable-libharfbuzz --enable-libjxl --enable-libmp3lame --enable-libopus --enable-libplacebo --enable-librav1e --enable-librist --enable-librubberband --enable-libsnappy --enable-libsrt --enable-libssh --enable-libsvtav1 --enable-libtesseract --enable-libtheora --enable-libvidstab --enable-libvmaf --enable-libvorbis --enable-libvpx --enable-libwebp --enable-libx264 --enable-libx265 --enable-libxml2 --enable-libxvid --enable-lzma --enable-libfontconfig --enable-libfreetype --enable-frei0r --enable-libass --enable-libopencore-amrnb --enable-libopencore-amrwb --enable-libopenjpeg --enable-libspeex --enable-libsoxr --enable-libzmq --enable-libzimg --enable-whisper --disable-libjack --disable-indev=jack --enable-videotoolbox --enable-audiotoolbox --enable-neon\n  libavutil      60. 26.100 / 60. 26.100\n  libavcodec     62. 28.100 / 62. 28.100\n  libavformat    62. 12.100 / 62. 12.100\n  libavdevice    62.  3.100 / 62.  3.100\n  libavfilter    11. 14.100 / 11. 14.100\n  libswscale      9.  5.100 /  9.  5.100\n  libswresample   6.  3.100 /  6.  3.100\nInput #0, mov,mp4,m4a,3gp,3g2,mj2, from '/var/folders/j8/0f8b_9650cb1wcvt43dysm9c0000gn/T/tmpc4fhf7tr/silent_video.mp4':\n  Metadata:\n    major_brand     : isom\n    minor_version   : 512\n    compatible_brands: isomiso2avc1mp41\n    encoder         : Lavf62.12.100\n  Duration: 00:00:40.00, start: 0.000000, bitrate: 2361 kb/s\n  Stream #0:0[0x1](und): Video: h264 (High) (avc1 / 0x31637661), yuv420p(progressive), 720x1280, 2359 kb/s, 24 fps, 24 tbr, 12288 tbn (default)\n    Metadata:\n      handler_name    : VideoHandler\nInput #1, mp3, from '/var/folders/j8/0f8b_9650cb1wcvt43dysm9c0000gn/T/tmpc4fhf7tr/final_audio.mp3':\n  Metadata:\n    encoder         : Lavf62.12.100\n  Duration: 00:00:32.54, start: 0.046042, bitrate: 32 kb/s\n  Stream #1:0: Audio: mp3 (mp3float), 24000 Hz, mono, fltp, 32 kb/s, start 0.046042\n[Parsed_subtitles_0 @ 0xc9ec54780] libass API version: 0x1704000\n[Parsed_subtitles_0 @ 0xc9ec54780] libass source: tarball: 0.17.4\n[Parsed_subtitles_0 @ 0xc9ec54780] Shaper: FriBidi 1.0.16 (SIMPLE) HarfBuzz-ng 13.2.1 (COMPLEX)\n[Parsed_subtitles_0 @ 0xc9ec54780] Unable to open subtitles.ass\n[AVFilterGraph @ 0xc9f070180] Error initializing filters\nError opening output file /Users/mac/.agents/skills/all-auto-douyin-video/douyin_video_20260330_011114.mp4.\nError opening output files: No such file or directory\n\n\\n--- Cleaning up temporary directory: /var/folders/j8/0f8b_9650cb1wcvt43dysm9c0000gn/T/tmpc4fhf7tr ---\n--- Cleanup complete. ---\n",
  "stderr": "/Users/mac/.agents/skills/all-auto-douyin-video/run.py:330: DeprecationWarning: Due to a bug, this method doesn't actually stream the response content, `.with_streaming_response.method()` should be used instead\n  response.stream_to_file(voiceover_path)\n"
}